<?xml version="1.0" encoding="utf-8"?><svg xmlns="http://www.w3.org/2000/svg" xmlns:xlink="http://www.w3.org/1999/xlink"><symbol viewBox="0 0 700 700" id="fav--safari-pinned-tab" xmlns="http://www.w3.org/2000/svg"><path d="M69.9.4c-.2.2-2.4.7-4.9 1.1C55.8 2.9 43.3 8 34 14.3 27.3 18.8 16.8 29.8 12.4 37c-2.1 3.5-3.9 6.6-4 6.9 0 .3-1.1 2.8-2.3 5.6-1.3 2.7-3.2 9.1-4.2 14.2C0 72.6 0 80.9.3 352.7c.1 153.9.6 281.1 1 282.8.4 1.6 1 3.8 1.3 4.7.3.9.7 2.5.9 3.6.7 4 7.6 17.6 11.9 23.5 11 15.4 28.8 26.8 48 30.8 8.8 1.8 17.9 1.9 290.1 1.6l281-.2 7.2-2.2c29.9-9.3 51-32.3 56.7-61.9 1.4-7 1.5-39.8 1.3-287.9-.1-154-.6-281.4-.9-283-6.5-29.3-28.8-53.9-55.6-61.1-3.1-.8-6.6-1.8-7.7-2.2C633.4.5 70.6-.3 69.9.4z"/></symbol></svg>